<svg width="1024" height="1024" viewBox="0 0 1024 1024" fill="none" xmlns="http://www.w3.org/2000/svg">
<rect width="1024" height="1024" fill="#F5F5F5"/>
<rect width="1024" height="1024" rx="156" fill="#1E1E1E"/>
<path d="M709 667.238C709 675.523 702.284 682.238 694 682.238H331C322.716 682.238 316 675.523 316 667.238V602.376C316 594.092 322.716 587.376 331 587.376H694C702.284 587.376 709 594.092 709 602.376V667.238Z" fill="#FBFBFB"/>
<path d="M492.172 488.602C492.172 496.886 498.888 503.602 507.172 503.602H694C702.284 503.602 709 510.318 709 518.602V545.273C709 553.557 702.284 560.273 694 560.273H331C322.716 560.273 316 553.557 316 545.273V470.555C316 462.271 322.716 455.555 331 455.555H477.172C485.457 455.555 492.172 462.271 492.172 470.555V488.602Z" fill="#FBFBFB"/>
<path d="M492.172 413.451C492.172 421.736 485.457 428.451 477.172 428.451H331C322.716 428.451 316 421.736 316 413.451V343.661C316 335.377 322.716 328.661 331 328.661H477.172C485.457 328.661 492.172 335.377 492.172 343.661V413.451Z" fill="#FBFBFB"/>
<path d="M492.172 286.558C492.172 294.842 485.457 301.558 477.172 301.558H331C322.716 301.558 316 294.842 316 286.558V218C316 209.716 322.716 203 331 203H477.172C485.457 203 492.172 209.716 492.172 218V286.558Z" fill="#FBFBFB"/>
<path d="M319.656 803V746.273H335.057V790.591H357.991V803H319.656ZM416.962 774.636C416.962 780.952 415.734 786.279 413.278 790.619C410.822 794.94 407.508 798.217 403.335 800.452C399.161 802.668 394.508 803.776 389.374 803.776C384.204 803.776 379.532 802.658 375.359 800.424C371.204 798.171 367.898 794.884 365.442 790.563C363.005 786.224 361.786 780.915 361.786 774.636C361.786 768.321 363.005 763.003 365.442 758.682C367.898 754.342 371.204 751.065 375.359 748.849C379.532 746.614 384.204 745.497 389.374 745.497C394.508 745.497 399.161 746.614 403.335 748.849C407.508 751.065 410.822 754.342 413.278 758.682C415.734 763.003 416.962 768.321 416.962 774.636ZM401.119 774.636C401.119 771.239 400.666 768.376 399.761 766.05C398.875 763.705 397.555 761.932 395.8 760.732C394.065 759.513 391.923 758.903 389.374 758.903C386.826 758.903 384.675 759.513 382.92 760.732C381.185 761.932 379.864 763.705 378.96 766.05C378.073 768.376 377.63 771.239 377.63 774.636C377.63 778.034 378.073 780.906 378.96 783.251C379.864 785.577 381.185 787.35 382.92 788.569C384.675 789.769 386.826 790.369 389.374 790.369C391.923 790.369 394.065 789.769 395.8 788.569C397.555 787.35 398.875 785.577 399.761 783.251C400.666 780.906 401.119 778.034 401.119 774.636ZM435.244 803H418.624L437.349 746.273H458.4L477.124 803H460.505L448.096 761.895H447.653L435.244 803ZM432.141 780.619H463.386V792.142H432.141V780.619ZM504.415 803H482.588V746.273H504.193C510.028 746.273 515.069 747.408 519.317 749.68C523.582 751.933 526.869 755.183 529.177 759.43C531.504 763.658 532.667 768.727 532.667 774.636C532.667 780.545 531.513 785.624 529.205 789.871C526.897 794.099 523.628 797.349 519.4 799.621C515.171 801.874 510.176 803 504.415 803ZM497.988 789.926H503.861C506.667 789.926 509.059 789.474 511.035 788.569C513.029 787.664 514.543 786.104 515.577 783.888C516.63 781.672 517.156 778.588 517.156 774.636C517.156 770.685 516.621 767.601 515.55 765.385C514.497 763.169 512.946 761.609 510.896 760.704C508.865 759.799 506.372 759.347 503.417 759.347H497.988V789.926ZM594.748 774.636C594.748 780.952 593.52 786.279 591.064 790.619C588.608 794.94 585.293 798.217 581.12 800.452C576.946 802.668 572.293 803.776 567.159 803.776C561.989 803.776 557.317 802.658 553.144 800.424C548.989 798.171 545.684 794.884 543.228 790.563C540.79 786.224 539.571 780.915 539.571 774.636C539.571 768.321 540.79 763.003 543.228 758.682C545.684 754.342 548.989 751.065 553.144 748.849C557.317 746.614 561.989 745.497 567.159 745.497C572.293 745.497 576.946 746.614 581.12 748.849C585.293 751.065 588.608 754.342 591.064 758.682C593.52 763.003 594.748 768.321 594.748 774.636ZM578.904 774.636C578.904 771.239 578.451 768.376 577.547 766.05C576.66 763.705 575.34 761.932 573.586 760.732C571.85 759.513 569.708 758.903 567.159 758.903C564.611 758.903 562.46 759.513 560.706 760.732C558.97 761.932 557.65 763.705 556.745 766.05C555.858 768.376 555.415 771.239 555.415 774.636C555.415 778.034 555.858 780.906 556.745 783.251C557.65 785.577 558.97 787.35 560.706 788.569C562.46 789.769 564.611 790.369 567.159 790.369C569.708 790.369 571.85 789.769 573.586 788.569C575.34 787.35 576.66 785.577 577.547 783.251C578.451 780.906 578.904 778.034 578.904 774.636ZM635.444 746.273H650.845V782.614C650.845 786.935 649.811 790.674 647.742 793.832C645.693 796.971 642.83 799.399 639.156 801.116C635.481 802.815 631.215 803.665 626.359 803.665C621.465 803.665 617.181 802.815 613.507 801.116C609.832 799.399 606.97 796.971 604.92 793.832C602.889 790.674 601.873 786.935 601.873 782.614V746.273H617.274V781.284C617.274 783.038 617.661 784.608 618.437 785.993C619.213 787.359 620.284 788.43 621.65 789.206C623.035 789.982 624.605 790.369 626.359 790.369C628.132 790.369 629.701 789.982 631.068 789.206C632.434 788.43 633.505 787.359 634.281 785.993C635.056 784.608 635.444 783.038 635.444 781.284V746.273ZM656.613 758.682V746.273H705.917V758.682H688.854V803H673.675V758.682H656.613Z" fill="#B5B5B5"/>
</svg>
