<svg width="1024" height="1024" viewBox="0 0 1024 1024" fill="none" xmlns="http://www.w3.org/2000/svg">
<rect width="1024" height="1024" fill="#0F0E14"/>
<path d="M510.484 930.572H510.493H510.512C519.004 930.572 527.034 927.316 533.064 921.37C539.148 915.377 542.496 907.394 542.496 898.909V649.671C592.773 637.823 632.19 598.988 644.184 549.411L899.896 549.006C917.599 548.988 932 534.724 932 517.225C932 508.715 928.626 500.703 922.504 494.71C916.465 488.762 908.424 485.49 899.805 485.49L644.184 485.988C632.161 436.467 592.773 397.742 542.496 386.024V125.958C542.496 108.513 528.158 94.332 510.4 94.332C492.809 94.4326 478.462 108.679 478.462 126.113V386.121C428.287 398.015 388.908 436.86 376.92 486.362L123.532 486.861C105.931 486.897 91.621 501.087 91.621 518.523C91.621 526.995 94.9772 534.963 101.035 540.936C107.055 546.875 115.04 550.147 123.597 550.147L376.929 549.751C388.943 599.208 428.285 637.942 478.461 649.697V898.862C478.462 916.335 492.827 930.552 510.484 930.572ZM413.397 519.684C413.397 465.331 457.469 421.269 511.811 421.269C566.164 421.269 610.218 465.332 610.218 519.684C610.218 574.037 566.164 618.091 511.811 618.091C457.469 618.091 413.397 574.038 413.397 519.684Z" fill="#374A5F"/>
<path d="M143.771 457.892C142.977 462.529 146.647 466.771 151.35 466.771H202.486C206.128 466.771 209.18 464.179 209.881 460.622C233.67 340.4 330.241 245.194 452.363 221.58C455.949 220.898 458.531 217.828 458.531 214.185V163.53C458.531 158.836 454.317 155.166 449.689 155.932C293.055 181.785 169.736 303.555 143.771 457.892Z" fill="#374A5F"/>
<path d="M820.825 561.618C817.118 561.618 814.039 564.3 813.413 567.952C791.947 692.728 692.565 791.799 566.423 814.767C562.809 815.413 560.172 818.492 560.172 822.162V872.872C560.172 877.529 564.35 881.189 568.951 880.47C730.007 855.593 856.491 729.684 879.817 570.341C880.498 565.768 876.847 561.618 872.192 561.618H820.825Z" fill="#374A5F"/>
<path d="M568.913 155.138C564.339 154.447 560.172 158.117 560.172 162.754V213.419C560.172 217.089 562.837 220.178 566.443 220.823C690.841 243.145 789.248 339.588 812.51 461.912C813.174 465.508 816.234 468.127 819.905 468.127H871.445C876.128 468.127 879.798 463.931 879.041 459.303C853.777 302.449 728.254 179.333 568.913 155.138Z" fill="#374A5F"/>
<path d="M209.455 573.254C208.791 569.667 205.712 567.049 202.042 567.049H150.825C146.149 567.049 142.481 571.244 143.218 575.854C168.288 732.947 294.188 856.598 453.845 880.692C458.455 881.384 462.603 877.741 462.603 873.094V822.439C462.603 818.741 459.948 815.662 456.305 815.027C331.437 792.877 232.562 695.965 209.455 573.254Z" fill="#374A5F"/>
<path d="M702.753 561.618C699.322 561.618 696.409 563.941 695.486 567.224C678.078 629.773 628.547 679.58 565.629 698.307C562.421 699.265 560.171 702.169 560.171 705.525V756.412C560.171 761.279 564.708 765.004 569.427 763.916C665.916 741.704 740.783 666.589 761.52 570.801C762.524 566.071 758.81 561.618 753.996 561.618H702.753Z" fill="#F4F4CB"/>
<path d="M560.171 279.14V330.091C560.171 333.475 562.43 336.36 565.648 337.32C626.75 355.345 675.201 402.756 693.863 462.732C694.858 465.922 697.736 468.127 701.055 468.127H752.835C757.703 468.127 761.447 463.544 760.303 458.795C737.954 365.662 664.035 293.174 569.418 271.644C564.689 270.566 560.171 274.282 560.171 279.14Z" fill="#F4F4CB"/>
<path d="M327.363 572.452C326.376 569.262 323.499 567.049 320.152 567.049H268.668C263.801 567.049 260.056 571.604 261.182 576.343C283.458 670.075 358.012 743.061 453.403 764.325C458.113 765.385 462.605 761.651 462.605 756.827V706.099C462.605 702.706 460.336 699.801 457.073 698.861C395.177 681.074 346.033 633.102 327.363 572.452Z" fill="#F4F4CB"/>
<path d="M449.198 272.466C356.684 294.934 284.396 366.215 261.697 457.385C260.499 462.152 264.25 466.771 269.147 466.771H320.945C324.246 466.771 327.104 464.604 328.137 461.46C346.929 403.161 393.913 356.867 453.162 338.289C456.352 337.294 458.529 334.434 458.529 331.098V279.944C458.529 275.046 453.936 271.312 449.198 272.466Z" fill="#F4F4CB"/>
<path d="M413.396 519.684C413.396 574.037 457.469 618.091 511.811 618.091C566.164 618.091 610.218 574.037 610.218 519.684C610.218 465.331 566.164 421.269 511.811 421.269C457.469 421.269 413.396 465.332 413.396 519.684Z" fill="#F4F4CB"/>
</svg>
